<svg width="47" height="47" viewBox="0 0 47 47" fill="none" xmlns="http://www.w3.org/2000/svg">
    <circle cx="23.5" cy="23.5" r="23.5" fill="#EFFBFF"/>
    <g clip-path="url(#agf9zokkha)" fill="#1357B9">
        <path d="M23.264 12.69h8.889c1.473 0 2.276.79 2.276 2.248 0 4.935 0 9.87-.01 14.796 0 .34.05.47.436.46.915-.03.925 0 .793.889-.244 1.708-1.799 3.117-3.546 3.207-.173.01-.355.02-.528.02h-16.64c-2.043 0-3.566-1.129-4.024-2.977-.06-.24-.08-.49-.101-.74-.03-.28.112-.42.396-.42h.152c.742 0 .742 0 .742-.748V14.927c0-1.449.803-2.238 2.276-2.238h8.889zm0 1.539h-8.93c-.559 0-.66.1-.66.659 0 4.965 0 9.94-.01 14.906 0 .31.07.4.396.39 2.164-.02 4.327 0 6.501-.01.336 0 .508.08.56.44.08.589.487.928 1.086.948.711.02 1.422.02 2.123 0 .59-.02 1.006-.36 1.077-.919.051-.4.254-.47.61-.47 2.143.01 4.277 0 6.42.01.315 0 .427-.05.427-.399-.01-4.945-.01-9.9-.01-14.866 0-.61-.081-.69-.701-.69h-8.89z"/>
        <path d="M29.918 22.331c.01 3.437-2.845 6.254-6.34 6.264-3.494.01-6.359-2.797-6.369-6.234-.01-3.437 2.834-6.244 6.34-6.254 3.514-.01 6.359 2.777 6.369 6.224zm-7.457 3.207c.061.01.132-.03.183-.08.081-.07.153-.14.224-.21l4.591-4.516c.387-.38.387-.42-.01-.809-.183-.19-.376-.37-.569-.55-.335-.319-.406-.319-.741 0-1.158 1.14-2.316 2.269-3.464 3.418-.214.21-.315.19-.498-.01-.254-.28-.539-.53-.803-.8-.203-.21-.386-.2-.579.01-.254.26-.518.52-.782.77-.193.19-.193.36 0 .55.721.698 1.432 1.408 2.154 2.107.091.07.162.13.294.12z"/>
    </g>
    <defs>
        <clipPath id="agf9zokkha">
            <path fill="#fff" transform="translate(10.809 12.69)" d="M0 0h24.91v21.62H0z"/>
        </clipPath>
    </defs>
</svg>
